PathFileType	4	(X/Y/Z)	/mnt/D494C4CF94C4B4F0/Trampoline_predictions/poses3d/1_partie_0429.trc
DataRate	CameraRate	NumFrames	NumMarkers	Units	OrigDataRate	OrigDataStartFrame	OrigNumFrames
120	120	7	17	m	120	436	1746
Frame#	Time	Nose			L Eye			R Eye			L Ear			R Ear			L Shoulder			R Shoulder			L Elbow			R Elbow			L Wrist			R Wrist			L Hip			R Hip			L Knee			R Knee			L Ankle			R Ankle			
		X1	Y1	Z1	X2	Y2	Z2	X3	Y3	Z3	X4	Y4	Z4	X5	Y5	Z5	X6	Y6	Z6	X7	Y7	Z7	X8	Y8	Z8	X9	Y9	Z9	X10	Y10	Z10	X11	Y11	Z11	X12	Y12	Z12	X13	Y13	Z13	X14	Y14	Z14	X15	Y15	Z15	X16	Y16	Z16	X17	Y17	Z17	
436	3.633333333333	0.1802664057674287	-0.08252549756877703	4.869181361415427	0.1581408263606186	-0.05181258580166671	4.849044146076848	0.20320183359960434	-0.051878806012834795	4.850684586422728	0.11966042298970547	-0.020976743647000865	4.882142271137313	0.22783633057887454	-0.008249003860284774	4.887892049759993	0.013385947592603597	-0.0648292131210284	5.043538168292907	0.2798015087384443	0.0428258452173132	5.067763163951586	-0.09241008317733447	-0.06740691571940843	5.267831211211161	0.4243487962910476	0.140484443124469	5.2477081043880185	-0.12410388673319768	-0.06624054723835775	5.494962566609047	0.5510970777145742	0.2864245219967998	5.40463347718539	0.0032275138734305046	-0.01410915384053477	5.459148464770808	0.13077789870771725	0.04366425334287694	5.479128965449311	-0.06275298901559605	0.09781919241750284	5.815862442627273	0.0664367714577154	0.14544528943463475	5.848130966373563	-0.13115461575812723	0.28350494626327477	6.140893518777486	-0.056744025961654586	0.2836290895296036	6.143661451557399
437	3.641666666667	0.19511216759207076	-0.07830562586640892	4.873519687793489	0.17329895054885652	-0.053134854361115605	4.850684896169588	0.21590720280257328	-0.05374395881184069	4.853633144383255	0.13502393302186283	-0.027186746817023374	4.880343038289348	0.23896085739200834	-0.017486515199840184	4.889955447222689	0.021025282332839523	-0.055446587078414954	5.0424885781912	0.27621502730915637	0.0349377027749491	5.070632800470598	-0.09687549772316459	-0.05873982169649547	5.261650555248868	0.43684060434194055	0.13536911568026783	5.256952282144255	-0.14004196160497204	-0.05908753542144899	5.4805130093164305	0.5685632939553023	0.27188141875860017	5.404944853731009	-0.0007949820609268378	-0.01371221161724225	5.453854818186032	0.11632677534947056	0.04516094819930651	5.475804880391208	-0.07959921240055412	0.10570750042715683	5.809151018872731	0.054364261416468974	0.14046096128235694	5.842234551162035	-0.15058910347780188	0.2790154960395411	6.133491156668027	-0.07453768846423932	0.27784443668933606	6.129509019536321
438	3.65	0.1942977512963276	-0.08388372606846721	4.858876450679524	0.17432087992863204	-0.055189154779621476	4.837995013913951	0.22342641919248218	-0.054465756359208514	4.845238818903193	0.13870790755828138	-0.022248601908366156	4.87534426583156	0.2537507113804517	-0.010186316355801285	4.891819012887535	0.0013960891121529383	-0.052581987905754725	5.036965516099842	0.30723986509805823	0.03461312027027274	5.0770853215775045	-0.09481843201079518	-0.054900443386680965	5.248385758463736	0.441317539121583	0.12733854116160476	5.25527399921237	-0.14617922170685166	-0.05645326395055381	5.467778130889872	0.5812927585650897	0.2534513027882012	5.401014581246352	-0.015600923037706447	-0.010596216539666756	5.442631921837301	0.13139924238103418	0.04697364622775658	5.4755385667500525	-0.10772599347847914	0.10201683306495285	5.791515925119933	0.038639720215603704	0.1253467753274553	5.81874739950399	-0.18340307618606488	0.2897753439972322	6.112407557134425	-0.09639469448817568	0.27499432047080663	6.116215469524701
439	3.658333333333	0.204054553405971	-0.08840980356689218	4.8651874399183965	0.18990907902361437	-0.05388936496641273	4.845247740165757	0.23228357886049963	-0.05556054518133022	4.851344478618231	0.15774938120009532	-0.01082201530134279	4.879467727356112	0.2574789093758191	-0.009657513848288857	4.895598285291232	0.0025011596384738196	-0.03702374127669169	5.033724692218991	0.3276119652582086	0.012400703512103218	5.0755582840000475	-0.0957607196496548	-0.048991680065426715	5.240695535758815	0.4486731161830482	0.10867053093407673	5.263272024231076	-0.15040244400935768	-0.046597137944799395	5.456069362798824	0.5911414356211444	0.239374103398626	5.410558668457975	-0.011217891974773865	-0.008670290462123227	5.433192867191081	0.12799641564358588	0.042730229879199576	5.476343297458598	-0.11027809070055064	0.12019008278765739	5.783653674096107	0.02694912035200729	0.13374579378105664	5.822687325736469	-0.19518028520874348	0.28172515001861725	6.097504836315331	-0.12131508400628442	0.2677100123108684	6.110988016801439
440	3.666666666667	0.2320631855377136	-0.08560086758126148	4.858163313303052	0.21198899177465821	-0.05484558225576319	4.836493747326926	0.2608357100037246	-0.056790360980740494	4.848082395519702	0.16868443094757185	-0.016766141331178045	4.871662007943863	0.28120680711472057	-0.00826237017097533	4.897097141911611	0.024956286794004773	-0.03518127146733216	5.023352088238363	0.32875161539833014	0.006989634441074682	5.080237326965722	-0.09110240877459355	-0.044423842991543956	5.22248208790562	0.4661074976895984	0.09390158245825123	5.2663681642124	-0.16502353472113637	-0.04038793679130193	5.434242193299823	0.6134504143583912	0.21513690651989603	5.403319958155116	-0.033411465944397596	0.003791074074311821	5.429679365172972	0.11533491656956917	0.0384219283346054	5.470379743502534	-0.13540340333911632	0.13374908531287436	5.786827443763316	0.010814296409962874	0.12953128551023463	5.813797948281771	-0.22374892844747143	0.2948426319913351	6.099940866779328	-0.1390213817761772	0.26755964433250856	6.1107096819206905
441	3.675	0.23360564403432865	-0.0928930847419665	4.858935385558539	0.2193685393870176	-0.05797339793108143	4.836571417836769	0.26757133443624387	-0.06448463985325584	4.847985654660012	0.18681506966628245	-0.014107698664110671	4.869314009749712	0.29124179654941473	-0.010887526875579444	4.896340541813969	0.04446406545501633	-0.029734355225225922	5.017402098338841	0.32350972138925665	0.006775263218719722	5.078015383137946	-0.09524960346842958	-0.037670130949116476	5.214815640649975	0.47247160036825636	0.0910104641876064	5.273058315228095	-0.17592541359700303	-0.03304904427438045	5.424064842853359	0.6264471015815005	0.20234703323312964	5.406844920302501	-0.036176455841040386	0.005102067321275623	5.416986293850582	0.10510207296267596	0.036628364244554075	5.460048439336796	-0.15064553727817337	0.12549164762082973	5.762448989074757	-0.004101802421110095	0.13387875801986746	5.813194327011598	-0.2416160095887792	0.29614746721441937	6.070298011392734	-0.16396438607415093	0.2720615533424533	6.084213684073843
442	3.683333333333	0.24164556794861475	-0.08241050885145303	4.849741897420725	0.23053784049764017	-0.055166563988002945	4.829509854472015	0.27977516047703344	-0.05851158405719674	4.843159622192384	0.20159821608989129	-0.023792680310444972	4.862225429927188	0.30978840976195976	-0.017216256353227155	4.891049560068414	0.049250939804563125	-0.028220257820952218	5.004774207362427	0.3325154338166497	-0.002155880012174287	5.07215588239211	-0.09135362285433725	-0.033855949127268595	5.195525889645234	0.47697616157992623	0.086117712191522	5.27606100648505	-0.1843660954585031	-0.029467670429686035	5.399190120607758	0.6319861538561308	0.19176543600972773	5.4160124666828775	-0.04416081461835155	0.008639638023489283	5.40872093357614	0.09823613788526032	0.041722716954940814	5.458185067410663	-0.1639444322906063	0.13440988234868956	5.760722184834425	-0.02411375146784652	0.1256805628579851	5.793305125753298	-0.2617154194511065	0.29231456136446404	6.058873919682026	-0.18082833580592134	0.27652626965249866	6.0740478468651
